<svg width="270" height="60" viewBox="0 0 270 60" fill="none" xmlns="http://www.w3.org/2000/svg" stroke="#E5E5E5" stroke-width="1px">
<path d="M20.48 46.1H12V9H18.466C23.13 9 26.6457 9.86567 29.013 11.597C31.3803 13.293 32.564 15.6957 32.564 18.805C32.564 22.3383 31.08 24.9353 28.112 26.596C32.4227 28.2213 34.578 31.2777 34.578 35.765C34.578 38.945 33.412 41.4713 31.08 43.344C28.748 45.1813 25.2146 46.1 20.48 46.1ZM20.48 44.51C22.1406 44.51 23.66 44.3863 25.038 44.139C26.416 43.8563 27.7233 43.4147 28.96 42.814C30.232 42.178 31.2213 41.2593 31.928 40.058C32.6346 38.8567 32.988 37.4257 32.988 35.765C32.988 31.9843 31.1683 29.4227 27.529 28.08L24.349 26.914L27.317 25.218C29.755 23.8753 30.974 21.7377 30.974 18.805C30.974 13.3283 26.8047 10.59 18.466 10.59H13.59V44.51H20.48Z" fill="#E4E4E4"/>
<path d="M76.0824 44.51V46.1H58.3804V15.36H59.9704V44.51H76.0824Z" fill="#E4E4E4"/>
<path d="M113.565 17.003C112.364 16.6143 110.88 16.42 109.113 16.42C107.346 16.42 105.862 16.6143 104.661 17.003C103.46 17.3563 102.347 18.0453 101.322 19.07C100.333 20.0593 99.5906 21.5257 99.0959 23.469C98.6013 25.377 98.3539 27.7973 98.3539 30.73C98.3539 33.6627 98.6013 36.1007 99.0959 38.044C99.5906 39.952 100.333 41.4183 101.322 42.443C102.347 43.4323 103.46 44.1213 104.661 44.51C105.862 44.8633 107.346 45.04 109.113 45.04C110.88 45.04 112.364 44.8633 113.565 44.51C114.766 44.1213 115.862 43.4323 116.851 42.443C117.876 41.4183 118.635 39.952 119.13 38.044C119.625 36.1007 119.872 33.6627 119.872 30.73C119.872 27.7973 119.625 25.377 119.13 23.469C118.635 21.5257 117.876 20.0593 116.851 19.07C115.862 18.0453 114.766 17.3563 113.565 17.003ZM118.6 42.867C116.692 45.3757 113.53 46.63 109.113 46.63C104.696 46.63 101.534 45.3757 99.6259 42.867C97.7179 40.3583 96.7639 36.3127 96.7639 30.73C96.7639 25.1473 97.7179 21.1017 99.6259 18.593C101.534 16.0843 104.696 14.83 109.113 14.83C113.53 14.83 116.692 16.0843 118.6 18.593C120.508 21.1017 121.462 25.1473 121.462 30.73C121.462 36.3127 120.508 40.3583 118.6 42.867Z" fill="#E4E4E4"/>
<path d="M146.131 46.1V15.36H147.721L164.999 43.185V15.36H166.589V46.1H164.999L147.721 18.222V46.1H146.131Z" fill="#E4E4E4"/>
<path d="M196.596 46.1H192.568V15.36H196.596C201.825 15.36 205.994 16.738 209.104 19.494C212.213 22.25 213.768 25.9953 213.768 30.73C213.768 35.4647 212.213 39.21 209.104 41.966C205.994 44.722 201.825 46.1 196.596 46.1ZM196.596 44.51C201.366 44.51 205.146 43.291 207.938 40.853C210.764 38.415 212.178 35.0407 212.178 30.73C212.178 26.4193 210.764 23.045 207.938 20.607C205.146 18.169 201.366 16.95 196.596 16.95H194.158V44.51H196.596Z" fill="#E4E4E4"/>
<path d="M239.618 15.36H260.129L247.674 44.775V56.7H246.084V44.775L233.629 15.36H235.325L246.879 42.549L257.744 16.95H239.618V15.36Z" fill="#E4E4E4"/>
</svg>
