<svg width="323" height="60" viewBox="0 0 323 60" fill="none" xmlns="http://www.w3.org/2000/svg" stroke="#E5E5E5" stroke-width="1px">
<path d="M39.154 43.51V45.1H17V8H18.59V43.51H39.154Z" fill="#E4E4E4"/>
<path d="M63.705 43.51H80.983L70.118 17.911L58.564 45.1H56.868L70.118 13.83L83.368 45.1H63.705V43.51Z" fill="#E4E4E4"/>
<path d="M106.375 14.36V29.73C106.375 34.9947 107.205 38.7047 108.866 40.86C110.562 42.98 112.876 44.04 115.809 44.04C118.741 44.04 121.038 42.98 122.699 40.86C124.395 38.7047 125.243 34.9947 125.243 29.73V14.36H126.833V29.73C126.833 40.33 123.158 45.63 115.809 45.63C108.459 45.63 104.785 40.33 104.785 29.73V14.36H106.375Z" fill="#E4E4E4"/>
<path d="M165.201 29.677L172.409 45.1H170.66L163.24 29.2C163.311 29.1647 163.611 29.0233 164.141 28.776C164.707 28.4933 165.095 28.299 165.307 28.193C165.519 28.0517 165.873 27.822 166.367 27.504C166.862 27.186 167.233 26.8857 167.48 26.603C167.728 26.285 167.993 25.9317 168.275 25.543C168.593 25.119 168.823 24.6597 168.964 24.165C169.106 23.635 169.176 23.0697 169.176 22.469C169.176 20.243 168.116 18.6 165.996 17.54C163.876 16.48 161.244 15.95 158.099 15.95H153.859V45.1H152.269V14.36H158.099C162.269 14.36 165.413 15.0843 167.533 16.533C169.689 17.9817 170.766 19.9603 170.766 22.469C170.766 24.0943 170.219 25.543 169.123 26.815C168.028 28.0517 166.721 29.0057 165.201 29.677Z" fill="#E4E4E4"/>
<path d="M216.061 41.973C214.118 44.411 210.938 45.63 206.521 45.63C202.105 45.63 198.942 44.3757 197.034 41.867C195.126 39.3583 194.172 35.3127 194.172 29.73C194.172 24.1473 195.126 20.1017 197.034 17.593C198.942 15.0843 202.105 13.83 206.521 13.83C211.645 13.83 215.125 15.5083 216.962 18.865L203.977 29.73H201.486L214.895 18.547C213.341 16.4623 210.549 15.42 206.521 15.42C204.755 15.42 203.271 15.6143 202.069 16.003C200.868 16.3563 199.755 17.0453 198.73 18.07C197.741 19.0593 196.999 20.5257 196.504 22.469C196.01 24.377 195.762 26.7973 195.762 29.73C195.762 32.6627 196.01 35.1007 196.504 37.044C196.999 38.952 197.741 40.4183 198.73 41.443C199.755 42.4323 200.868 43.1213 202.069 43.51C203.271 43.8633 204.755 44.04 206.521 44.04C210.549 44.04 213.341 42.9977 214.895 40.913L216.061 41.973Z" fill="#E4E4E4"/>
<path d="M240.434 45.1V14.36H242.024L259.302 42.185V14.36H260.892V45.1H259.302L242.024 17.222V45.1H240.434Z" fill="#E4E4E4"/>
<path d="M306.746 14.36V15.95H295.616V45.1H294.026V15.95H282.896V14.36H306.746Z" fill="#E4E4E4"/>
</svg>
