<svg width="318" height="66" viewBox="0 0 318 66" fill="none" xmlns="http://www.w3.org/2000/svg" stroke="#E5E5E5" stroke-width="1px">
<path d="M36.5803 50.32V52H13.1723V12.8H14.8523V50.32H36.5803Z" fill="#E6E6E6"/>
<path d="M60.841 50.32H79.097L67.617 23.272L55.409 52H53.617L67.617 18.96L81.617 52H60.841V50.32Z" fill="#E6E6E6"/>
<path d="M104.246 19.52V35.76C104.246 41.3227 105.123 45.2427 106.878 47.52C108.67 49.76 111.115 50.88 114.214 50.88C117.312 50.88 119.739 49.76 121.494 47.52C123.286 45.2427 124.182 41.3227 124.182 35.76V19.52H125.862V35.76C125.862 46.96 121.979 52.56 114.214 52.56C106.448 52.56 102.566 46.96 102.566 35.76V19.52H104.246Z" fill="#E6E6E6"/>
<path d="M164.722 35.704L172.338 52H170.49L162.65 35.2C162.725 35.1627 163.042 35.0133 163.602 34.752C164.2 34.4533 164.61 34.248 164.834 34.136C165.058 33.9867 165.432 33.744 165.954 33.408C166.477 33.072 166.869 32.7547 167.13 32.456C167.392 32.12 167.672 31.7467 167.97 31.336C168.306 30.888 168.549 30.4027 168.698 29.88C168.848 29.32 168.922 28.7227 168.922 28.088C168.922 25.736 167.802 24 165.562 22.88C163.322 21.76 160.541 21.2 157.218 21.2H152.738V52H151.058V19.52H157.218C161.624 19.52 164.946 20.2853 167.186 21.816C169.464 23.3467 170.602 25.4373 170.602 28.088C170.602 29.8053 170.024 31.336 168.866 32.68C167.709 33.9867 166.328 34.9947 164.722 35.704Z" fill="#E6E6E6"/>
<path d="M216.781 48.696C214.728 51.272 211.368 52.56 206.701 52.56C202.035 52.56 198.693 51.2347 196.677 48.584C194.661 45.9333 193.653 41.6587 193.653 35.76C193.653 29.8613 194.661 25.5867 196.677 22.936C198.693 20.2853 202.035 18.96 206.701 18.96C212.115 18.96 215.792 20.7333 217.733 24.28L204.013 35.76H201.381L215.549 23.944C213.907 21.7413 210.957 20.64 206.701 20.64C204.835 20.64 203.267 20.8453 201.997 21.256C200.728 21.6293 199.552 22.3573 198.469 23.44C197.424 24.4853 196.64 26.0347 196.117 28.088C195.595 30.104 195.333 32.6613 195.333 35.76C195.333 38.8587 195.595 41.4347 196.117 43.488C196.64 45.504 197.424 47.0533 198.469 48.136C199.552 49.1813 200.728 49.9093 201.997 50.32C203.267 50.6933 204.835 50.88 206.701 50.88C210.957 50.88 213.907 49.7787 215.549 47.576L216.781 48.696Z" fill="#E6E6E6"/>
<path d="M240.853 52V19.52H242.533L260.789 48.92V19.52H262.469V52H260.789L242.533 22.544V52H240.853Z" fill="#E6E6E6"/>
<path d="M309.239 19.52V21.2H297.479V52H295.799V21.2H284.039V19.52H309.239Z" fill="#E6E6E6"/>
</svg>


