<svg width="500" height="500" viewBox="0 0 500 500" fill="#00aaff" xmlns="http://www.w3.org/2000/svg">
<path d="M495.3 248.5C495.3 216 454.6 185.2 392.2 166.1C406.6 102.5 400.2 51.9 372 35.7C365.5 31.9 357.9 30.1 349.6 30.1V52.4C354.2 52.4 357.9 53.3 361 55C374.6 62.8 380.5 92.5 375.9 130.7C374.8 140.1 373 150 370.8 160.1C351.2 155.3 329.8 151.6 307.3 149.2C293.8 130.7 279.8 113.9 265.7 99.2C298.3 68.9 328.9 52.3 349.7 52.3V30C322.2 30 286.2 49.6 249.8 83.6C213.4 49.8 177.4 30.4 149.9 30.4V52.7C170.6 52.7 201.3 69.2 233.9 99.3C219.9 114 205.9 130.7 192.6 149.2C170 151.6 148.6 155.3 129 160.2C126.7 150.2 125 140.5 123.8 131.2C119.1 93 124.9 63.3 138.4 55.4C141.4 53.6 145.3 52.8 149.9 52.8V30.5C141.5 30.5 133.9 32.3 127.3 36.1C99.2002 52.3 92.9002 102.8 107.4 166.2C45.2002 185.4 4.7002 216.1 4.7002 248.5C4.7002 281 45.4002 311.8 107.8 330.9C93.4002 394.5 99.8002 445.1 128 461.3C134.5 465.1 142.1 466.9 150.5 466.9C178 466.9 214 447.3 250.4 413.3C286.8 447.1 322.8 466.5 350.3 466.5C358.7 466.5 366.3 464.7 372.9 460.9C401 444.7 407.3 394.2 392.8 330.8C454.8 311.7 495.3 280.9 495.3 248.5ZM365.1 181.8C361.4 194.7 356.8 208 351.6 221.3C347.5 213.3 343.2 205.3 338.5 197.3C333.9 189.3 329 181.5 324.1 173.9C338.3 176 352 178.6 365.1 181.8ZM319.3 288.3C311.5 301.8 303.5 314.6 295.2 326.5C280.3 327.8 265.2 328.5 250 328.5C234.9 328.5 219.8 327.8 205 326.6C196.7 314.7 188.6 302 180.8 288.6C173.2 275.5 166.3 262.2 160 248.8C166.2 235.4 173.2 222 180.7 208.9C188.5 195.4 196.5 182.6 204.8 170.7C219.7 169.4 234.8 168.7 250 168.7C265.1 168.7 280.2 169.4 295 170.6C303.3 182.5 311.4 195.2 319.2 208.6C326.8 221.7 333.7 235 340 248.4C333.7 261.8 326.8 275.2 319.3 288.3ZM351.6 275.3C357 288.7 361.6 302.1 365.4 315.1C352.3 318.3 338.5 321 324.2 323.1C329.1 315.4 334 307.5 338.6 299.4C343.2 291.4 347.5 283.3 351.6 275.3ZM250.2 382C240.9 372.4 231.6 361.7 222.4 350C231.4 350.4 240.6 350.7 249.9 350.7C259.3 350.7 268.6 350.5 277.7 350C268.7 361.7 259.4 372.4 250.2 382ZM175.8 323.1C161.6 321 147.9 318.4 134.8 315.2C138.5 302.3 143.1 289 148.3 275.7C152.4 283.7 156.7 291.7 161.4 299.7C166.1 307.7 170.9 315.5 175.8 323.1ZM249.7 115C259 124.6 268.3 135.3 277.5 147C268.5 146.6 259.3 146.3 250 146.3C240.6 146.3 231.3 146.5 222.2 147C231.2 135.3 240.5 124.6 249.7 115ZM175.7 173.9C170.8 181.6 165.9 189.5 161.3 197.6C156.7 205.6 152.4 213.6 148.3 221.6C142.9 208.2 138.3 194.8 134.5 181.8C147.6 178.7 161.4 176 175.7 173.9ZM85.2002 299.1C49.8002 284 26.9002 264.2 26.9002 248.5C26.9002 232.8 49.8002 212.9 85.2002 197.9C93.8002 194.2 103.2 190.9 112.9 187.8C118.6 207.4 126.1 227.8 135.4 248.7C126.2 269.5 118.8 289.8 113.2 309.3C103.3 306.2 93.9002 302.8 85.2002 299.1ZM139 442C125.4 434.2 119.5 404.5 124.1 366.3C125.2 356.9 127 347 129.2 336.9C148.8 341.7 170.2 345.4 192.7 347.8C206.2 366.3 220.2 383.1 234.3 397.8C201.7 428.1 171.1 444.7 150.3 444.7C145.8 444.6 142 443.7 139 442ZM376.2 365.8C380.9 404 375.1 433.7 361.6 441.6C358.6 443.4 354.7 444.2 350.1 444.2C329.4 444.2 298.7 427.7 266.1 397.6C280.1 382.9 294.1 366.2 307.4 347.7C330 345.3 351.4 341.6 371 336.7C373.3 346.8 375.1 356.5 376.2 365.8ZM414.7 299.1C406.1 302.8 396.7 306.1 387 309.2C381.3 289.6 373.8 269.2 364.5 248.3C373.7 227.5 381.1 207.2 386.7 187.7C396.6 190.8 406 194.2 414.8 197.9C450.2 213 473.1 232.8 473.1 248.5C473 264.2 450.1 284.1 414.7 299.1Z" fill="#00aaff"/>
<path d="M249.9 294.2C275.14 294.2 295.6 273.739 295.6 248.5C295.6 223.261 275.14 202.8 249.9 202.8C224.661 202.8 204.2 223.261 204.2 248.5C204.2 273.739 224.661 294.2 249.9 294.2Z" fill="#00aaff"/>
</svg>
