<svg width="279" height="66" viewBox="0 0 279 66" fill="none" xmlns="http://www.w3.org/2000/svg" stroke="#E5E5E5" stroke-width="1px">
<g clip-path="url(#clip0)">
<path d="M21.317 54H11.237V9.90002H18.923C24.467 9.90002 28.646 10.929 31.46 12.987C34.274 15.003 35.681 17.859 35.681 21.555C35.681 25.755 33.917 28.842 30.389 30.816C35.513 32.748 38.075 36.381 38.075 41.715C38.075 45.495 36.689 48.498 33.917 50.724C31.145 52.908 26.945 54 21.317 54ZM21.317 52.11C23.291 52.11 25.097 51.963 26.735 51.669C28.373 51.333 29.927 50.808 31.397 50.094C32.909 49.338 34.085 48.246 34.925 46.818C35.765 45.39 36.185 43.689 36.185 41.715C36.185 37.221 34.022 34.176 29.696 32.58L25.916 31.194L29.444 29.178C32.342 27.582 33.791 25.041 33.791 21.555C33.791 15.045 28.835 11.79 18.923 11.79H13.127V52.11H21.317Z" fill="#E6E6E6"/>
<path d="M79.2204 52.11V54H58.1784V17.46H60.0684V52.11H79.2204Z" fill="#E6E6E6"/>
<path d="M115.585 19.413C114.157 18.951 112.393 18.72 110.293 18.72C108.193 18.72 106.429 18.951 105.001 19.413C103.573 19.833 102.25 20.652 101.032 21.87C99.8562 23.046 98.9742 24.789 98.3862 27.099C97.7982 29.367 97.5042 32.244 97.5042 35.73C97.5042 39.216 97.7982 42.114 98.3862 44.424C98.9742 46.692 99.8562 48.435 101.032 49.653C102.25 50.829 103.573 51.648 105.001 52.11C106.429 52.53 108.193 52.74 110.293 52.74C112.393 52.74 114.157 52.53 115.585 52.11C117.013 51.648 118.315 50.829 119.491 49.653C120.709 48.435 121.612 46.692 122.2 44.424C122.788 42.114 123.082 39.216 123.082 35.73C123.082 32.244 122.788 29.367 122.2 27.099C121.612 24.789 120.709 23.046 119.491 21.87C118.315 20.652 117.013 19.833 115.585 19.413ZM121.57 50.157C119.302 53.139 115.543 54.63 110.293 54.63C105.043 54.63 101.284 53.139 99.0162 50.157C96.7482 47.175 95.6142 42.366 95.6142 35.73C95.6142 29.094 96.7482 24.285 99.0162 21.303C101.284 18.321 105.043 16.83 110.293 16.83C115.543 16.83 119.302 18.321 121.57 21.303C123.838 24.285 124.972 29.094 124.972 35.73C124.972 42.366 123.838 47.175 121.57 50.157Z" fill="#E6E6E6"/>
<path d="M146.105 54V17.46H147.995L168.533 50.535V17.46H170.423V54H168.533L147.995 20.862V54H146.105Z" fill="#E6E6E6"/>
<path d="M197.902 54H193.114V17.46H197.902C204.118 17.46 209.074 19.098 212.77 22.374C216.466 25.65 218.314 30.102 218.314 35.73C218.314 41.358 216.466 45.81 212.77 49.086C209.074 52.362 204.118 54 197.902 54ZM197.902 52.11C203.572 52.11 208.066 50.661 211.384 47.763C214.744 44.865 216.424 40.854 216.424 35.73C216.424 30.606 214.744 26.595 211.384 23.697C208.066 20.799 203.572 19.35 197.902 19.35H195.004V52.11H197.902Z" fill="#E6E6E6"/>
<path d="M240.851 17.46H265.232L250.427 52.425V66.6H248.537V52.425L233.732 17.46H235.748L249.482 49.779L262.397 19.35H240.851V17.46Z" fill="#E6E6E6"/>
</g>
<defs>
<clipPath id="clip0">
<rect width="279" height="66" fill="white"/>
</clipPath>
</defs>
</svg>

