<svg width="279" height="66" viewBox="0 0 279 66" fill="none" xmlns="http://www.w3.org/2000/svg" stroke="#E5E5E5" stroke-width="1px">
<path d="M24.3641 52H15.4041V12.8H22.2361C27.1641 12.8 30.8788 13.7147 33.3801 15.544C35.8815 17.336 37.1321 19.8747 37.1321 23.16C37.1321 26.8933 35.5641 29.6373 32.4281 31.392C36.9828 33.1093 39.2601 36.3387 39.2601 41.08C39.2601 44.44 38.0281 47.1093 35.5641 49.088C33.1001 51.0293 29.3668 52 24.3641 52ZM24.3641 50.32C26.1188 50.32 27.7241 50.1893 29.1801 49.928C30.6361 49.6293 32.0175 49.1627 33.3242 48.528C34.6681 47.856 35.7135 46.8853 36.4601 45.616C37.2068 44.3467 37.5801 42.8347 37.5801 41.08C37.5801 37.0853 35.6575 34.3787 31.8121 32.96L28.4521 31.728L31.5881 29.936C34.1641 28.5173 35.4521 26.2587 35.4521 23.16C35.4521 17.3733 31.0468 14.48 22.2361 14.48H17.0841V50.32H24.3641Z" fill="#E6E6E6"/>
<path d="M81.4338 50.32V52H62.7298V19.52H64.4098V50.32H81.4338Z" fill="#E6E6E6"/>
<path d="M119.358 21.256C118.089 20.8453 116.521 20.64 114.654 20.64C112.787 20.64 111.219 20.8453 109.95 21.256C108.681 21.6293 107.505 22.3573 106.422 23.44C105.377 24.4853 104.593 26.0347 104.07 28.088C103.547 30.104 103.286 32.6613 103.286 35.76C103.286 38.8587 103.547 41.4347 104.07 43.488C104.593 45.504 105.377 47.0533 106.422 48.136C107.505 49.1813 108.681 49.9093 109.95 50.32C111.219 50.6933 112.787 50.88 114.654 50.88C116.521 50.88 118.089 50.6933 119.358 50.32C120.627 49.9093 121.785 49.1813 122.83 48.136C123.913 47.0533 124.715 45.504 125.238 43.488C125.761 41.4347 126.022 38.8587 126.022 35.76C126.022 32.6613 125.761 30.104 125.238 28.088C124.715 26.0347 123.913 24.4853 122.83 23.44C121.785 22.3573 120.627 21.6293 119.358 21.256ZM124.678 48.584C122.662 51.2347 119.321 52.56 114.654 52.56C109.987 52.56 106.646 51.2347 104.63 48.584C102.614 45.9333 101.606 41.6587 101.606 35.76C101.606 29.8613 102.614 25.5867 104.63 22.936C106.646 20.2853 109.987 18.96 114.654 18.96C119.321 18.96 122.662 20.2853 124.678 22.936C126.694 25.5867 127.702 29.8613 127.702 35.76C127.702 41.6587 126.694 45.9333 124.678 48.584Z" fill="#E6E6E6"/>
<path d="M152.087 52V19.52H153.767L172.023 48.92V19.52H173.703V52H172.023L153.767 22.544V52H152.087Z" fill="#E6E6E6"/>
<path d="M203.729 52H199.473V19.52H203.729C209.254 19.52 213.659 20.976 216.945 23.888C220.23 26.8 221.873 30.7573 221.873 35.76C221.873 40.7627 220.23 44.72 216.945 47.632C213.659 50.544 209.254 52 203.729 52ZM203.729 50.32C208.769 50.32 212.763 49.032 215.713 46.456C218.699 43.88 220.193 40.3147 220.193 35.76C220.193 31.2053 218.699 27.64 215.713 25.064C212.763 22.488 208.769 21.2 203.729 21.2H201.153V50.32H203.729Z" fill="#E6E6E6"/>
<path d="M247.506 19.52H269.178L256.018 50.6V63.2H254.338V50.6L241.178 19.52H242.97L255.178 48.248L266.658 21.2H247.506V19.52Z" fill="#E6E6E6"/>
</svg>


