<svg width="611" height="49" viewBox="0 0 611 49" fill="none" xmlns="http://www.w3.org/2000/svg" stroke="#E5E5E5" stroke-width="1px">
<path d="M32.154 36.51V38.1H10V1H11.59V36.51H32.154Z" fill="#E4E4E4"/>
<path d="M56.705 36.51H73.983L63.118 10.911L51.564 38.1H49.868L63.118 6.83L76.368 38.1H56.705V36.51Z" fill="#E4E4E4"/>
<path d="M99.3746 7.36V22.73C99.3746 27.9947 100.205 31.7047 101.866 33.86C103.562 35.98 105.876 37.04 108.809 37.04C111.741 37.04 114.038 35.98 115.699 33.86C117.395 31.7047 118.243 27.9947 118.243 22.73V7.36H119.833V22.73C119.833 33.33 116.158 38.63 108.809 38.63C101.459 38.63 97.7846 33.33 97.7846 22.73V7.36H99.3746Z" fill="#E4E4E4"/>
<path d="M158.201 22.677L165.409 38.1H163.66L156.24 22.2C156.311 22.1647 156.611 22.0233 157.141 21.776C157.707 21.4933 158.095 21.299 158.307 21.193C158.519 21.0517 158.873 20.822 159.367 20.504C159.862 20.186 160.233 19.8857 160.48 19.603C160.728 19.285 160.993 18.9317 161.275 18.543C161.593 18.119 161.823 17.6597 161.964 17.165C162.106 16.635 162.176 16.0697 162.176 15.469C162.176 13.243 161.116 11.6 158.996 10.54C156.876 9.48 154.244 8.95 151.099 8.95H146.859V38.1H145.269V7.36H151.099C155.269 7.36 158.413 8.08433 160.533 9.533C162.689 10.9817 163.766 12.9603 163.766 15.469C163.766 17.0943 163.219 18.543 162.123 19.815C161.028 21.0517 159.721 22.0057 158.201 22.677Z" fill="#E4E4E4"/>
<path d="M209.061 34.973C207.118 37.411 203.938 38.63 199.521 38.63C195.105 38.63 191.942 37.3757 190.034 34.867C188.126 32.3583 187.172 28.3127 187.172 22.73C187.172 17.1473 188.126 13.1017 190.034 10.593C191.942 8.08433 195.105 6.83 199.521 6.83C204.645 6.83 208.125 8.50833 209.962 11.865L196.977 22.73H194.486L207.895 11.547C206.341 9.46233 203.549 8.42 199.521 8.42C197.755 8.42 196.271 8.61433 195.069 9.003C193.868 9.35633 192.755 10.0453 191.73 11.07C190.741 12.0593 189.999 13.5257 189.504 15.469C189.01 17.377 188.762 19.7973 188.762 22.73C188.762 25.6627 189.01 28.1007 189.504 30.044C189.999 31.952 190.741 33.4183 191.73 34.443C192.755 35.4323 193.868 36.1213 195.069 36.51C196.271 36.8633 197.755 37.04 199.521 37.04C203.549 37.04 206.341 35.9977 207.895 33.913L209.061 34.973Z" fill="#E4E4E4"/>
<path d="M233.434 38.1V7.36H235.024L252.302 35.185V7.36H253.892V38.1H252.302L235.024 10.222V38.1H233.434Z" fill="#E4E4E4"/>
<path d="M299.746 7.36V8.95H288.616V38.1H287.026V8.95H275.896V7.36H299.746Z" fill="#E4E4E4"/>
<path d="M361.976 38.1H353.496V1H359.962C364.626 1 368.142 1.86567 370.509 3.597C372.876 5.293 374.06 7.69567 374.06 10.805C374.06 14.3383 372.576 16.9353 369.608 18.596C373.919 20.2213 376.074 23.2777 376.074 27.765C376.074 30.945 374.908 33.4713 372.576 35.344C370.244 37.1813 366.711 38.1 361.976 38.1ZM361.976 36.51C363.637 36.51 365.156 36.3863 366.534 36.139C367.912 35.8563 369.219 35.4147 370.456 34.814C371.728 34.178 372.717 33.2593 373.424 32.058C374.131 30.8567 374.484 29.4257 374.484 27.765C374.484 23.9843 372.664 21.4227 369.025 20.08L365.845 18.914L368.813 17.218C371.251 15.8753 372.47 13.7377 372.47 10.805C372.47 5.32833 368.301 2.59 359.962 2.59H355.086V36.51H361.976Z" fill="#E4E4E4"/>
<path d="M417.578 36.51V38.1H399.876V7.36H401.466V36.51H417.578Z" fill="#E4E4E4"/>
<path d="M455.061 9.003C453.86 8.61433 452.376 8.42 450.609 8.42C448.842 8.42 447.358 8.61433 446.157 9.003C444.956 9.35633 443.843 10.0453 442.818 11.07C441.829 12.0593 441.087 13.5257 440.592 15.469C440.097 17.377 439.85 19.7973 439.85 22.73C439.85 25.6627 440.097 28.1007 440.592 30.044C441.087 31.952 441.829 33.4183 442.818 34.443C443.843 35.4323 444.956 36.1213 446.157 36.51C447.358 36.8633 448.842 37.04 450.609 37.04C452.376 37.04 453.86 36.8633 455.061 36.51C456.262 36.1213 457.358 35.4323 458.347 34.443C459.372 33.4183 460.131 31.952 460.626 30.044C461.121 28.1007 461.368 25.6627 461.368 22.73C461.368 19.7973 461.121 17.377 460.626 15.469C460.131 13.5257 459.372 12.0593 458.347 11.07C457.358 10.0453 456.262 9.35633 455.061 9.003ZM460.096 34.867C458.188 37.3757 455.026 38.63 450.609 38.63C446.192 38.63 443.03 37.3757 441.122 34.867C439.214 32.3583 438.26 28.3127 438.26 22.73C438.26 17.1473 439.214 13.1017 441.122 10.593C443.03 8.08433 446.192 6.83 450.609 6.83C455.026 6.83 458.188 8.08433 460.096 10.593C462.004 13.1017 462.958 17.1473 462.958 22.73C462.958 28.3127 462.004 32.3583 460.096 34.867Z" fill="#E4E4E4"/>
<path d="M487.626 38.1V7.36H489.216L506.494 35.185V7.36H508.084V38.1H506.494L489.216 10.222V38.1H487.626Z" fill="#E4E4E4"/>
<path d="M538.092 38.1H534.064V7.36H538.092C543.321 7.36 547.49 8.738 550.6 11.494C553.709 14.25 555.264 17.9953 555.264 22.73C555.264 27.4647 553.709 31.21 550.6 33.966C547.49 36.722 543.321 38.1 538.092 38.1ZM538.092 36.51C542.862 36.51 546.642 35.291 549.434 32.853C552.26 30.415 553.674 27.0407 553.674 22.73C553.674 18.4193 552.26 15.045 549.434 12.607C546.642 10.169 542.862 8.95 538.092 8.95H535.654V36.51H538.092Z" fill="#E4E4E4"/>
<path d="M581.114 7.36H601.625L589.169 36.775V48.7H587.58V36.775L575.125 7.36H576.82L588.375 34.549L599.24 8.95H581.114V7.36Z" fill="#E4E4E4"/>
</svg>

