<svg width="318" height="66" viewBox="0 0 318 66" fill="none" xmlns="http://www.w3.org/2000/svg" stroke="#E5E5E5" stroke-width="1px">
<path d="M39.571 51.11V53H13.237V8.90002H15.127V51.11H39.571Z" fill="#E6E6E6"/>
<path d="M60.5643 51.11H81.1023L68.1873 20.681L54.4533 53H52.4373L68.1873 15.83L83.9373 53H60.5643V51.11Z" fill="#E6E6E6"/>
<path d="M103.095 16.46V34.73C103.095 40.988 104.082 45.398 106.056 47.96C108.072 50.48 110.823 51.74 114.309 51.74C117.795 51.74 120.525 50.48 122.499 47.96C124.515 45.398 125.523 40.988 125.523 34.73V16.46H127.413V34.73C127.413 47.33 123.045 53.63 114.309 53.63C105.573 53.63 101.205 47.33 101.205 34.73V16.46H103.095Z" fill="#E6E6E6"/>
<path d="M164.831 34.667L173.399 53H171.32L162.5 34.1C162.584 34.058 162.941 33.89 163.571 33.596C164.243 33.26 164.705 33.029 164.957 32.903C165.209 32.735 165.629 32.462 166.217 32.084C166.805 31.706 167.246 31.349 167.54 31.013C167.834 30.635 168.149 30.215 168.485 29.753C168.863 29.249 169.136 28.703 169.304 28.115C169.472 27.485 169.556 26.813 169.556 26.099C169.556 23.453 168.296 21.5 165.776 20.24C163.256 18.98 160.127 18.35 156.389 18.35H151.349V53H149.459V16.46H156.389C161.345 16.46 165.083 17.321 167.603 19.043C170.165 20.765 171.446 23.117 171.446 26.099C171.446 28.031 170.795 29.753 169.493 31.265C168.191 32.735 166.637 33.869 164.831 34.667Z" fill="#E6E6E6"/>
<path d="M217.097 49.283C214.787 52.181 211.007 53.63 205.757 53.63C200.507 53.63 196.748 52.139 194.48 49.157C192.212 46.175 191.078 41.366 191.078 34.73C191.078 28.094 192.212 23.285 194.48 20.303C196.748 17.321 200.507 15.83 205.757 15.83C211.847 15.83 215.984 17.825 218.168 21.815L202.733 34.73H199.772L215.711 21.437C213.863 18.959 210.545 17.72 205.757 17.72C203.657 17.72 201.893 17.951 200.465 18.413C199.037 18.833 197.714 19.652 196.496 20.87C195.32 22.046 194.438 23.789 193.85 26.099C193.262 28.367 192.968 31.244 192.968 34.73C192.968 38.216 193.262 41.114 193.85 43.424C194.438 45.692 195.32 47.435 196.496 48.653C197.714 49.829 199.037 50.648 200.465 51.11C201.893 51.53 203.657 51.74 205.757 51.74C210.545 51.74 213.863 50.501 215.711 48.023L217.097 49.283Z" fill="#E6E6E6"/>
<path d="M237.878 53V16.46H239.768L260.306 49.535V16.46H262.196V53H260.306L239.768 19.862V53H237.878Z" fill="#E6E6E6"/>
<path d="M308.512 16.46V18.35H295.282V53H293.392V18.35H280.162V16.46H308.512Z" fill="#E6E6E6"/>
</svg>

