<svg width="906" height="62" viewBox="0 0 906 62" fill="none" xmlns="http://www.w3.org/2000/svg" stroke="#E5E5E5" stroke-width="2px">
<path d="M40.1797 46.6667V48.6667H12V2H14.0225V46.6667H40.1797Z" fill="#E5E5E5"/>
<path d="M81.5206 46.6667H103.498L89.6778 14.4667L74.9813 48.6667H72.824L89.6778 9.33333L106.532 48.6667H81.5206V46.6667Z" fill="#E5E5E5"/>
<path d="M145.908 10V29.3333C145.908 35.9556 146.964 40.6222 149.077 43.3333C151.234 46 154.178 47.3333 157.908 47.3333C161.638 47.3333 164.56 46 166.672 43.3333C168.829 40.6222 169.908 35.9556 169.908 29.3333V10H171.93V29.3333C171.93 42.6667 167.256 49.3333 157.908 49.3333C148.56 49.3333 143.886 42.6667 143.886 29.3333V10H145.908Z" fill="#E5E5E5"/>
<path d="M230.847 29.2667L240.016 48.6667H237.791L228.353 28.6667C228.443 28.6222 228.825 28.4444 229.499 28.1333C230.218 27.7778 230.712 27.5333 230.982 27.4C231.252 27.2222 231.701 26.9333 232.33 26.5333C232.96 26.1333 233.432 25.7556 233.746 25.4C234.061 25 234.398 24.5556 234.757 24.0667C235.162 23.5333 235.454 22.9556 235.634 22.3333C235.814 21.6667 235.903 20.9556 235.903 20.2C235.903 17.4 234.555 15.3333 231.859 14C229.162 12.6667 225.814 12 221.814 12H216.42V48.6667H214.398V10H221.814C227.117 10 231.117 10.9111 233.814 12.7333C236.555 14.5556 237.926 17.0444 237.926 20.2C237.926 22.2444 237.229 24.0667 235.836 25.6667C234.443 27.2222 232.78 28.4222 230.847 29.2667Z" fill="#E5E5E5"/>
<path d="M305.653 44.7333C303.181 47.8 299.136 49.3333 293.518 49.3333C287.9 49.3333 283.878 47.7556 281.451 44.6C279.024 41.4444 277.811 36.3556 277.811 29.3333C277.811 22.3111 279.024 17.2222 281.451 14.0667C283.878 10.9111 287.9 9.33333 293.518 9.33333C300.035 9.33333 304.462 11.4444 306.799 15.6667L290.282 29.3333H287.114L304.17 15.2667C302.193 12.6444 298.642 11.3333 293.518 11.3333C291.271 11.3333 289.384 11.5778 287.856 12.0667C286.327 12.5111 284.912 13.3778 283.608 14.6667C282.35 15.9111 281.406 17.7556 280.777 20.2C280.148 22.6 279.833 25.6444 279.833 29.3333C279.833 33.0222 280.148 36.0889 280.777 38.5333C281.406 40.9333 282.35 42.7778 283.608 44.0667C284.912 45.3111 286.327 46.1778 287.856 46.6667C289.384 47.1111 291.271 47.3333 293.518 47.3333C298.642 47.3333 302.193 46.0222 304.17 43.4L305.653 44.7333Z" fill="#E5E5E5"/>
<path d="M346.767 48.6667V10H348.789L370.766 45V10H372.789V48.6667H370.766L348.789 13.6V48.6667H346.767Z" fill="#E5E5E5"/>
<path d="M441.227 10V12H427.07V48.6667H425.048V12H410.89V10H441.227Z" fill="#E5E5E5"/>
<path d="M540.608 48.6667H529.822V2H538.046C543.979 2 548.451 3.08889 551.462 5.26667C554.473 7.4 555.979 10.4222 555.979 14.3333C555.979 18.7778 554.091 22.0444 550.316 24.1333C555.799 26.1778 558.541 30.0222 558.541 35.6667C558.541 39.6667 557.057 42.8444 554.091 45.2C551.125 47.5111 546.63 48.6667 540.608 48.6667ZM540.608 46.6667C542.72 46.6667 544.653 46.5111 546.406 46.2C548.159 45.8444 549.821 45.2889 551.394 44.5333C553.012 43.7333 554.271 42.5778 555.17 41.0667C556.069 39.5556 556.518 37.7556 556.518 35.6667C556.518 30.9111 554.203 27.6889 549.574 26L545.529 24.5333L549.305 22.4C552.406 20.7111 553.956 18.0222 553.956 14.3333C553.956 7.44445 548.653 4 538.046 4H531.844V46.6667H540.608Z" fill="#E5E5E5"/>
<path d="M621.446 46.6667V48.6667H598.929V10H600.952V46.6667H621.446Z" fill="#E5E5E5"/>
<path d="M679.236 12.0667C677.708 11.5778 675.82 11.3333 673.573 11.3333C671.326 11.3333 669.438 11.5778 667.91 12.0667C666.382 12.5111 664.966 13.3778 663.663 14.6667C662.404 15.9111 661.461 17.7556 660.831 20.2C660.202 22.6 659.888 25.6444 659.888 29.3333C659.888 33.0222 660.202 36.0889 660.831 38.5333C661.461 40.9333 662.404 42.7778 663.663 44.0667C664.966 45.3111 666.382 46.1778 667.91 46.6667C669.438 47.1111 671.326 47.3333 673.573 47.3333C675.82 47.3333 677.708 47.1111 679.236 46.6667C680.764 46.1778 682.157 45.3111 683.416 44.0667C684.719 42.7778 685.685 40.9333 686.314 38.5333C686.944 36.0889 687.258 33.0222 687.258 29.3333C687.258 25.6444 686.944 22.6 686.314 20.2C685.685 17.7556 684.719 15.9111 683.416 14.6667C682.157 13.3778 680.764 12.5111 679.236 12.0667ZM685.64 44.6C683.213 47.7556 679.191 49.3333 673.573 49.3333C667.955 49.3333 663.932 47.7556 661.506 44.6C659.079 41.4444 657.865 36.3556 657.865 29.3333C657.865 22.3111 659.079 17.2222 661.506 14.0667C663.932 10.9111 667.955 9.33333 673.573 9.33333C679.191 9.33333 683.213 10.9111 685.64 14.0667C688.067 17.2222 689.281 22.3111 689.281 29.3333C689.281 36.3556 688.067 41.4444 685.64 44.6Z" fill="#E5E5E5"/>
<path d="M730.771 48.6667V10H732.794L754.771 45V10H756.794V48.6667H754.771L732.794 13.6V48.6667H730.771Z" fill="#E5E5E5"/>
<path d="M805.075 48.6667H799.951V10H805.075C811.726 10 817.03 11.7333 820.985 15.2C824.94 18.6667 826.917 23.3778 826.917 29.3333C826.917 35.2889 824.94 40 820.985 43.4667C817.03 46.9333 811.726 48.6667 805.075 48.6667ZM805.075 46.6667C811.142 46.6667 815.951 45.1333 819.501 42.0667C823.097 39 824.895 34.7556 824.895 29.3333C824.895 23.9111 823.097 19.6667 819.501 16.6C815.951 13.5333 811.142 12 805.075 12H801.974V46.6667H805.075Z" fill="#E5E5E5"/>
<path d="M869.91 10H896L880.157 47V62H878.135V47L862.292 10H864.45L879.146 44.2L892.966 12H869.91V10Z" fill="#E5E5E5"/>
</svg>
