<svg width="28" height="29" viewBox="0 0 28 29" fill="none" xmlns="http://www.w3.org/2000/svg">
    <path
        d="M18.2913 27.9453C18.1588 27.9943 18.0257 28.0535 17.8894 28.078C17.3674 28.1735 17.0332 27.8972 17.0301 27.35C17.0232 26.3339 17.0232 25.3194 17.0394 24.3034C17.0563 23.1349 17.0301 21.9814 16.1624 21.0175C16.6783 20.9227 17.1371 20.8564 17.586 20.7506C20.5595 20.0503 22.104 18.1271 22.3011 14.9351C22.4019 13.3104 22.1194 11.8198 21.0661 10.54C20.9899 10.45 20.986 10.2455 21.0222 10.1145C21.3025 9.05652 21.2209 8.02307 20.8944 6.98882C20.8136 6.73066 20.6796 6.65092 20.4309 6.6675C19.5578 6.71723 18.7579 7.03146 18.0526 7.51463C17.3727 7.9828 16.7399 8.08465 15.9322 7.89517C14.1537 7.48384 12.3636 7.60384 10.5889 8.02544C10.3879 8.07439 10.1177 8.00886 9.93367 7.89833C9.1006 7.39778 8.26753 6.91145 7.30666 6.71723C6.56368 6.56881 6.499 6.6067 6.3019 7.34331C6.05398 8.27176 6.02934 9.201 6.28265 10.135C6.31884 10.2708 6.28111 10.4887 6.19257 10.5889C4.22385 12.8414 4.93681 17.0976 6.2634 18.7279C7.29511 19.9943 8.66559 20.5643 10.187 20.8603C10.4526 20.9109 10.7167 20.9496 10.9823 20.9969C10.7544 21.6048 10.5496 22.1788 10.3179 22.7433C10.2724 22.8523 10.1285 22.9438 10.0107 22.9896C8.51853 23.5833 7.23583 23.1467 6.38197 21.758C5.9254 21.0175 5.33948 20.464 4.46638 20.3037C4.43866 20.2982 4.41018 20.2832 4.38477 20.2872C4.14994 20.3503 3.91742 20.4166 3.68336 20.4814C3.81502 20.6693 3.90818 20.9219 4.0845 21.0348C4.8244 21.5148 5.30561 22.1993 5.62359 23.007C6.12327 24.2734 7.09339 24.8378 8.35377 24.9484C8.96894 24.9997 9.59028 24.9563 10.264 24.9563C10.264 25.7426 10.2917 26.6403 10.2524 27.534C10.2324 28.0156 9.76043 28.2082 9.1953 28.0108C7.69625 27.485 6.30652 26.7311 5.10619 25.6716C0.772248 21.8433 -0.898504 17.0036 0.542039 11.339C1.97796 5.69246 5.7206 2.22893 11.3165 1.14178C19.0597 -0.359846 26.3948 5.42245 27.1632 13.4825C27.7699 19.8364 24.1227 25.7821 18.2913 27.9453ZM10.9916 20.9669C10.9869 20.978 10.9839 20.9859 10.9792 20.9969C10.9931 20.9993 11.007 21.0017 11.0216 21.004C11.0324 21.0048 11.0416 21.0246 10.9916 20.9669ZM7.48836 23.4783C7.60924 23.5549 7.72473 23.652 7.85562 23.6939C7.90336 23.7097 7.9919 23.5983 8.1482 23.4799C7.93107 23.3954 7.80327 23.3212 7.66853 23.3023C7.61617 23.296 7.54842 23.4167 7.48836 23.4783ZM8.59168 23.6725C8.60938 23.7554 8.7703 23.8589 8.865 23.8573C8.95662 23.8557 9.04594 23.731 9.13756 23.6599C9.05441 23.5817 8.97125 23.506 8.71564 23.2699C8.6602 23.4341 8.56858 23.5667 8.59168 23.6725ZM9.94522 23.3386C9.83127 23.3662 9.73502 23.4744 9.63108 23.5486C9.69191 23.6275 9.75273 23.701 9.85051 23.8249C9.98525 23.6986 10.0769 23.611 10.1693 23.5257C10.0923 23.457 10.0022 23.3244 9.94522 23.3386ZM6.58985 22.8704C6.65299 22.9928 6.75077 23.0986 6.8832 23.2715C6.97174 23.123 7.06798 23.0094 7.05104 22.9865C6.96712 22.8736 6.85317 22.7812 6.74076 22.6967C6.73306 22.6904 6.57676 22.8436 6.58985 22.8704Z"
        fill="#15878E" />
</svg>