<svg width="62" height="62" viewBox="0 0 62 62" fill="none" xmlns="http://www.w3.org/2000/svg">
<path d="M0 0H62V62H0V0Z" fill="#E4CB58"/>
<path d="M28 28.8001H33.63V49.0601C33.63 54.1201 30.24 57.2301 25.75 57.2301C18.66 57.2301 16.97 52.0401 16.97 52.0401L21.63 49.1901C21.63 49.1901 22.9 52.1901 25.2 52.1901C27.5 52.1901 28 50.5801 28 48.0001V28.8001ZM50 35.7701L54.2 33.0001C53.5302 31.5853 52.4639 30.3956 51.1307 29.5754C49.7975 28.7552 48.2547 28.34 46.69 28.3801C41.06 28.3801 38.27 31.9301 38.27 36.5501C38.27 41.1701 42.66 43.6601 45.6 44.9101C48.75 46.2401 50.33 47.3801 50.33 49.2801C50.33 50.6701 49.18 52.0501 46.7 52.1301C42.76 52.2601 41.07 48.5201 41.07 48.5201L36.65 51.5201C36.65 51.5201 39.07 57.2801 46.83 57.2801C54.59 57.2801 55.92 51.8401 55.92 49.2801C55.92 46.7201 55.01 43.1401 49.5 40.6701C43.99 38.2001 43.66 37.0001 43.66 35.7001C43.66 34.4001 44.81 33.3601 46.66 33.3601C48.51 33.3601 50 35.7001 50 35.7001" fill="#444444"/>
</svg>
