<svg class="jquery" width="29" height="31" viewBox="0 0 29 31" fill="none" xmlns="http://www.w3.org/2000/svg">
<path d="M17.7079 0.00614063C17.6384 0.0169045 17.5689 0.0384322 17.5019 0.0707237C16.9354 0.364039 16.2917 1.23591 16.1681 1.40813C16.1603 1.4189 16.1526 1.42966 16.1475 1.44042C15.5114 2.43608 15.1715 3.60127 15.1586 4.81489C15.1509 5.72444 15.3209 6.62591 15.6659 7.49509C16.4693 9.51062 18.1379 11.179 20.1233 11.9594C20.1902 11.9836 20.2546 12.0078 20.3705 12.0509C20.3808 12.0563 20.4786 12.0886 20.4941 12.0913L20.5662 12.1182C20.6692 12.1531 20.7748 12.1881 20.8778 12.2097C21.4005 12.32 21.9103 12.3819 22.3893 12.398C22.4717 12.398 22.5541 12.4007 22.6365 12.4007C26.2493 12.4007 27.6501 9.73666 28.1161 8.84864C28.1625 8.76253 28.196 8.69257 28.2269 8.64951C28.2269 8.64682 28.2269 8.64682 28.2294 8.64413C28.4329 8.32929 28.3556 7.90143 28.0543 7.68615C27.7556 7.47356 27.3462 7.55429 27.1402 7.86913H27.1376C26.1746 9.35185 24.5266 9.80125 22.2425 9.20923C22.0726 9.16618 21.8872 9.0989 21.7224 9.03432C21.5061 8.95359 21.2898 8.85941 21.0889 8.75715C20.6898 8.54995 20.3138 8.30238 19.9739 8.0279C17.9654 6.39987 17.18 3.01195 18.3542 1.05562C18.5113 0.794593 18.483 0.455531 18.2847 0.226799C18.1354 0.0545776 17.9191 -0.0234601 17.7079 0.00614063ZM11.8678 1.37853C11.7184 1.37584 11.5665 1.42697 11.4429 1.53461C10.4464 2.38226 9.42665 3.7708 9.38287 3.82731C9.37772 3.83807 9.37257 3.84614 9.36485 3.85691C7.56233 6.599 7.42586 10.5009 9.0198 13.7973C9.26957 14.3194 9.55282 14.8172 9.8541 15.2747L9.94423 15.4092C10.1992 15.7994 10.485 16.2407 10.8506 16.5852C10.9768 16.7359 11.1133 16.8812 11.2472 17.0211L11.3116 17.0911L11.3656 17.1476C11.5021 17.2848 11.6412 17.4247 11.7854 17.5593H11.7879C11.7982 17.5754 11.8137 17.5862 11.8266 17.5997C11.9888 17.7503 12.1536 17.893 12.3725 18.0733L12.4317 18.119C12.6016 18.2616 12.7742 18.3962 12.9519 18.528C12.9699 18.5415 12.9879 18.5549 13.0059 18.5684C13.0677 18.6115 13.1295 18.6518 13.1913 18.6976L13.2531 18.7406L13.3252 18.7891C13.4566 18.8806 13.5853 18.964 13.7681 19.0743C13.8866 19.1497 14.0128 19.225 14.0952 19.2681C14.1312 19.2896 14.1698 19.3111 14.26 19.3622L14.4608 19.4726C14.4711 19.4779 14.5175 19.4995 14.5278 19.5049C14.6591 19.5748 14.7956 19.6421 14.932 19.7067L15.1406 19.8036C15.2771 19.8654 15.4161 19.9246 15.5861 19.9919L15.6633 20.0215C15.6685 20.0269 15.7329 20.0511 15.738 20.0538C15.8616 20.0996 15.9878 20.1453 16.114 20.1884L16.4024 20.2879C16.5466 20.3391 16.714 20.3983 16.8968 20.4305C17.7955 20.5866 18.6684 20.6674 19.495 20.6674C19.5928 20.6674 19.6907 20.6647 19.786 20.6647C27.063 20.4978 28.9556 14.0368 28.9736 13.9722C29.0638 13.6466 28.917 13.2995 28.6234 13.1542C28.3299 13.0089 27.9797 13.1111 27.7968 13.391C25.9531 16.2057 22.4666 17.3951 18.9156 16.4156C18.7508 16.3726 18.5911 16.3241 18.3929 16.2569C18.3594 16.2461 18.3311 16.2353 18.277 16.2138C18.1611 16.1761 18.0478 16.1358 17.9191 16.0846L17.7362 16.012C17.6307 15.9689 17.5251 15.9259 17.3963 15.8667L17.3114 15.8263C17.1543 15.7563 17.0024 15.6783 16.8659 15.6083L16.4899 15.4038C16.405 15.3608 16.3303 15.3123 16.2144 15.2397L16.15 15.202L16.0857 15.1616C15.9904 15.1024 15.8951 15.0406 15.8075 14.976L15.7457 14.9356C15.7406 14.9329 15.6891 14.8952 15.6839 14.8899C15.6067 14.8387 15.532 14.7876 15.4599 14.7392C15.3003 14.6208 15.1432 14.497 14.9604 14.3463L14.8883 14.2844C13.1888 12.8663 11.9321 10.9718 11.3425 8.94014C10.794 7.0753 11.2008 4.6346 12.4317 2.41186C12.5913 2.12393 12.5321 1.75796 12.2875 1.54268C12.1665 1.43504 12.0171 1.37853 11.8678 1.37853ZM4.61394 3.44519C4.45686 3.44519 4.29721 3.50439 4.17103 3.6228C2.91185 4.80413 1.96939 6.33529 1.86639 6.5102C-0.827081 10.6085 -0.306927 16.978 1.54194 20.8719C1.57799 20.9526 1.61661 21.0306 1.65524 21.1087L1.68099 21.1517C1.71446 21.2298 1.75309 21.3105 1.76596 21.3266C1.78656 21.3778 1.81746 21.4343 1.83034 21.4504C1.86124 21.5177 1.89214 21.5769 1.94879 21.6792L2.15994 22.0586C2.19084 22.1097 2.22174 22.1635 2.23204 22.1824C2.27324 22.2523 2.31702 22.325 2.36079 22.3976L2.46379 22.5699C2.4947 22.621 2.5256 22.6667 2.5462 22.6937C2.6492 22.8605 2.7522 23.0273 2.8655 23.1861C2.87065 23.1942 2.8758 23.1996 2.88095 23.2049L2.92215 23.2641C3.01485 23.4041 3.11012 23.5386 3.1951 23.6489L3.57105 24.1468C3.5762 24.1522 3.6174 24.2033 3.61998 24.2087L3.67405 24.2732C3.78735 24.4186 3.90838 24.5639 4.02941 24.7038C4.04743 24.7253 4.06546 24.7442 4.08348 24.7657C4.19936 24.8975 4.31781 25.0294 4.44141 25.1666L4.55986 25.285C4.65771 25.3927 4.75556 25.4976 4.85856 25.5972C4.85856 25.5999 4.90749 25.6483 4.90749 25.6483L5.01049 25.7479C5.13409 25.8717 5.26284 25.9955 5.36069 26.0816C5.36584 26.0896 5.45854 26.1731 5.46627 26.1784C5.58729 26.2915 5.70832 26.3991 5.83192 26.5041L6.4628 27.0261C6.56838 27.1068 6.67653 27.1876 6.80013 27.2817C6.84133 27.314 6.8851 27.3463 6.92888 27.3759C6.9469 27.3921 6.9675 27.4082 6.98038 27.4163L7.45418 27.7473C7.62671 27.8657 7.79924 27.976 8.01039 28.1079L8.12369 28.1751C8.25501 28.2559 8.38892 28.3366 8.51509 28.4066C8.58977 28.4496 8.66444 28.4873 8.72882 28.5223C8.81894 28.5734 8.91679 28.6299 9.06615 28.7053C9.07902 28.7133 9.1846 28.7672 9.19747 28.7725C9.34682 28.8506 9.49875 28.9232 9.6893 29.012C9.6893 29.0147 9.7511 29.0443 9.7511 29.0443C9.9262 29.1224 10.0962 29.1977 10.3202 29.2919C10.3562 29.308 10.3923 29.3215 10.4 29.3242C10.5597 29.3888 10.727 29.4534 10.8635 29.5045C10.8764 29.5099 10.9459 29.5395 10.9588 29.5448C11.1416 29.6094 11.3219 29.6713 11.5536 29.7467C11.5922 29.7601 11.6334 29.7736 11.6386 29.7736L11.7699 29.8166C11.9296 29.8678 12.0892 29.9216 12.2617 29.9566C13.4875 30.1907 14.6848 30.3118 15.8178 30.3118H15.8204C25.263 30.3118 28.2706 22.3707 28.3015 22.29C28.4174 21.9698 28.2912 21.6092 28.0028 21.4424C27.7196 21.2782 27.3591 21.3562 27.1582 21.628C24.7351 24.9621 20.1645 26.2 14.932 24.9433C14.8059 24.911 14.6771 24.8733 14.5509 24.833L14.3037 24.7549C14.1364 24.7011 13.969 24.6419 13.8068 24.5827C13.8042 24.5827 13.7295 24.5531 13.7295 24.5531C13.5853 24.502 13.4411 24.4428 13.3149 24.3916L13.1707 24.3324C13.0111 24.2652 12.8514 24.1952 12.6969 24.1226L12.6068 24.0822C12.4677 24.0149 12.3338 23.9503 12.1999 23.8804C12.1896 23.875 12.0841 23.8212 12.0738 23.8185C11.9811 23.77 11.8884 23.7189 11.7699 23.6516L11.2317 23.3502C11.1777 23.3126 11.121 23.2776 11.0669 23.248C10.9047 23.143 10.7373 23.0381 10.5725 22.9278C10.5339 22.9035 10.5004 22.8766 10.4361 22.8309C10.3228 22.7555 10.212 22.6775 10.0498 22.5591L9.98543 22.5107C9.8747 22.4299 9.76655 22.3438 9.67643 22.2739C9.61977 22.2308 9.56312 22.1824 9.47042 22.1097C9.38802 22.0424 9.30562 21.9779 9.22837 21.9133L9.08417 21.7895C8.96315 21.6872 8.84984 21.5796 8.73139 21.4746C8.71594 21.4585 8.70307 21.4477 8.68504 21.4343C8.55372 21.3078 8.41982 21.1813 8.26016 21.0226L7.79409 20.5382C7.68079 20.4171 7.56748 20.2933 7.43873 20.1453C7.32028 20.0081 7.20698 19.8708 7.05506 19.6825L6.77695 19.3273C6.74348 19.2761 6.70743 19.225 6.66365 19.1712C6.56838 19.0366 6.4731 18.9048 6.37783 18.7648C3.81311 15.0728 3.1436 7.36592 5.14182 4.5431C5.34267 4.26055 5.30662 3.86229 5.05427 3.6228C4.93066 3.50439 4.77101 3.44519 4.61394 3.44519Z" fill="#005568"/>
</svg>
