<svg width="100" height="100" viewBox="0 0 100 100" fill="none" xmlns="http://www.w3.org/2000/svg">
<path d="M50 100C77.6142 100 100 77.6142 100 50C100 22.3858 77.6142 0 50 0C22.3858 0 0 22.3858 0 50C0 77.6142 22.3858 100 50 100Z" fill="#CC6699"/>
<path d="M76.9 27.8C76.3 25.4 74.6 23.4 72 22C66.9 19.3 58.7 19.2 51.2 21.9C46.7 23.5 38.2 27.1 31.8 33C25.4 39 24.4 44.3 24.9 46.4C26 52.2 32.1 56.3 36.9 59.7C38.2 60.6 39.4 61.4 40.3 62.2C37.6 63.6 30.3 67.7 28.3 72C26.8 75.4 27.5 77.9 28.1 79C28.7 80.3 29.7 81.3 30.7 81.6C31.7 81.9 32.8 82 33.9 82C38.2 82 42.4 79.7 45 75.8C47.6 71.9 47.8 66.7 46.6 63.5C48.3 63.1 50.1 63.1 52.1 63.3C56 63.8 57.9 65.3 58.8 66.5C59.8 67.8 60 69.1 59.9 69.9C59.7 71.4 58.5 72.3 57.9 72.7C57.4 73 57 73.3 57.1 73.9C57.3 74.7 58.1 74.6 58.4 74.6C59.3 74.4 62.5 72.8 62.7 69.2C62.8 67 61.9 64.8 60.2 63C58 60.7 54.7 59.5 50.9 59.6C48.1 59.6 46.2 59.9 44.7 60.4L44.6 60.3C43.2 58.8 41.3 57.4 39.6 56C35.6 53 31.9 50.1 32.1 45.8C32.4 40.4 37.7 35.1 48 30C57.1 25.5 64.5 25.3 68.4 26.7C70 27.3 71.1 28.1 71.5 29C72.3 30.7 72 32.9 70.6 35.3C68.3 39.3 62.5 44.3 53.6 45.3C48.2 45.9 45.9 43.5 45.8 43.4C45.2 42.7 44.8 42.3 44.1 42.7C43.3 43.1 43.7 44.2 43.9 44.6C44.3 45.7 46 47.6 48.9 48.6C51.2 49.4 57.1 49.9 64.4 47.1C72.8 43.7 78.6 34.7 76.9 27.8ZM42.4 70.4C42.3 70.6 42.3 70.8 42.2 71C42.1 71.2 42 71.4 42 71.6C41.6 72.5 41 73.4 40.2 74.2C37.9 76.7 34.8 77.4 33.8 76.8C33.5 76.6 33.4 76.3 33.3 75.9C33.1 74.7 33.8 72.3 35.9 70.2C38.4 67.6 41.9 65.7 42.7 65.3C43 67.1 42.9 68.8 42.4 70.4Z" fill="white"/>
</svg>
